<?xml version="1.0" encoding="utf-8"?>
<!-- Generator: Adobe Illustrator 25.0.0, SVG Export Plug-In . SVG Version: 6.00 Build 0)  -->
<svg version="1.1" xmlns="http://www.w3.org/2000/svg" xmlns:xlink="http://www.w3.org/1999/xlink" x="0px" y="0px" viewBox="0 0 595.3 841.9" style="enable-background:new 0 0 595.3 841.9;" xml:space="preserve">
    <style type="text/css">
	.st0{display:none;}
	.st1{display:inline;fill:#EEE0E1;}
	.st2{fill:#FFFFFF;}
	.st3{fill:url(#SVGID_1_);}
	.st4{fill:#5B2766;}
	.st5{fill:#EFDEEE;}
	.st6{fill:url(#SVGID_2_);}
	.st7{fill:#FFFDF0;}
	.st8{fill:url(#SVGID_3_);}
	.st9{fill:#9D519A;}
	.st10{fill:#1B0C07;}
	.st11{display:inline;fill:url(#SVGID_4_);}
	.st12{display:none;fill:#5B2766;}
	.st13{display:none;fill:#EFDEEE;}
	.st14{fill:url(#SVGID_5_);}
	.st15{fill:none;stroke:#502565;stroke-width:5;stroke-miterlimit:10;}
	.st16{fill:#502565;}
</style>
    <g id="Calque_2" class="st0">
        <rect x="0.3" y="-1" class="st1" width="593.2" height="843.1" />
    </g>
    <g id="Calque_6">
        <path class="st2" d="M314.4,185l-44.4,2.8l-61,27.7l-38.8,52.7l-1.8,40.7l52.7,41.6l33.3,37.9c0,0-18.5,71.2-18.5,84.1
		s49,68.4,49,68.4l83.2-14.8l39.8-62l-4.6-85.1l-21.3-63.8l0.9-48.1l3.7-42.5l-16.6-18.5l-38.8-18.5L314.4,185L314.4,185" />
    </g>
    <g id="Calque_1" class="st0">

        <image style="display:inline;overflow:visible;" width="944" height="1280" xlink:href="../../../Downloads/photo_2021-09-13 16.13.22.jpeg" transform="matrix(0.5581 0 0 0.5581 36.1951 126.0211)"></image>
    </g>
    <g id="Calque_3">
        <linearGradient id="SVGID_1_" gradientUnits="userSpaceOnUse" x1="394.4776" y1="282.2102" x2="473.3834" y2="282.2102">
            <stop offset="0" style="stop-color:#E51540" />
            <stop offset="1" style="stop-color:#734192" />
        </linearGradient>
        <path class="st3" d="M423.9,365c15.3-24.3,74.9-125.6,37.1-164.6c-1.7-1.8-5.4-2.9-6.5-3.2c-8.6-2.1-32.1,5-40.2,53.6
		c-4.3,25.6-7.7,38.8-19.9,64.7c-0.1,0.2,10.3,10.8,10.3,11c4.5,26,5.8,33.5,10.2,39C417.3,368.5,421.9,368.2,423.9,365z" />

        <ellipse transform="matrix(0.9106 -0.4134 0.4134 0.9106 -104.1122 199.4888)" class="st4" cx="409" cy="340.4" rx="10.7" ry="29.8" />
        <path class="st5" d="M405.6,341.9c3.8,8.3,8.3,14.6,10.1,14.1s0.2-7.7-3.6-16c-3.8-8.3-8.3-14.6-10.1-14.1
		C400.2,326.4,401.8,333.6,405.6,341.9z M403,328.4c1.2-0.3,4.7,4.8,7.8,11.6c3.1,6.8,4.6,12.5,3.4,12.8c-1.2,0.3-4.7-4.8-7.8-11.6
		C403.4,334.5,401.8,328.7,403,328.4z" />
        <linearGradient id="SVGID_2_" gradientUnits="userSpaceOnUse" x1="193.4917" y1="487.3386" x2="419.8745" y2="487.3386">
            <stop offset="0" style="stop-color:#E51540" />
            <stop offset="1" style="stop-color:#734192" />
        </linearGradient>
        <path class="st6" d="M405.5,318.4c19.9,92.9,18.8,146-1.3,210.6c0,0,0,0,0,0c-40.4,108.4-102.7,129.7-147.4,127.1
		c-1.4-0.1-3.5-0.2-4.9-0.3c-43.7-5-61.6-41.8-58-77.6c0,0,0,0,0,0c31.3-103.6,5.3-199.1,5.3-199.1L405.5,318.4z" />
        <path class="st7" d="M286.7,372c0,0.9,0.1,1.9,0.4,2.8l1.7,6.1c1.5,5.4,7.2,8.5,12.5,6.9l37.4-10.7c5.4-1.5,8.5-7.2,6.9-12.5
		l-1.7-6.1c-0.4-1.3-1-2.5-1.8-3.5c-10.7,3.9-22.3,7.7-34.5,11.3C300.4,368.4,293.5,370.3,286.7,372z" />
        <path class="st4" d="M405.5,318.4c-2.9-9.7-51.4-4-108.3,12.8c-57,16.8-100.9,38.2-98,47.9c2.1,7,28,6,63.7-1.5
		c7.5-1.6,15.5-3.4,23.8-5.6c6.8-1.7,13.7-3.7,20.9-5.7c12.2-3.6,23.9-7.4,34.5-11.3c9.5-3.4,18.2-6.9,26-10.3
		C392.4,334.1,407.2,324.1,405.5,318.4z" />
        <linearGradient id="SVGID_3_" gradientUnits="userSpaceOnUse" x1="157.0487" y1="275.9194" x2="410.8468" y2="275.9194">
            <stop offset="0" style="stop-color:#E51540" />
            <stop offset="1" style="stop-color:#734192" />
        </linearGradient>
        <path class="st8" d="M407,237.7c16.9,47.2-23.1,94.1-91.2,118.5C247.6,380.5,178,375,161.2,327.8s19.3-112.2,87.4-136.6
		S390.1,190.5,407,237.7z" />
        <path class="st2" d="M293.2,188.1c-5.9,0.1-11.7,1.5-17,4.1c0.7,0.8,1.2,1.7,1.5,2.7v0c1.4,4.3-0.9,9-5.2,10.4l-31.9,10.6
		c-4.3,1.4-9-0.9-10.4-5.2v0c-0.1-0.4-0.2-0.7-0.3-1.1c-3.8,1.7-7.4,3.9-10.5,6.7c-13,11.6-35.5,34.6-42.2,60.2
		c-7.2,27.3,15.1,53.2,43.1,50.6c52.2-4.9,140.8-42.7,152.5-67C389.2,234.7,359.7,186.5,293.2,188.1z" />
        <path class="st9" d="M240.2,268.6c2.7-0.3,3.1-3.9,0.7-5.1c-8.5-4.1-28.9-3.7-33.3,12.4c-0.8,2.8,2.4,4.5,4.8,2.8
		C225.7,269.5,223.8,270.3,240.2,268.6z" />
        <path class="st9" d="M328.1,237c2.7-0.3,3.1-3.9,0.7-5.1c-8.5-4.1-28.9-3.7-33.3,12.4c-0.8,2.8,2.4,4.5,4.8,2.8
		C313.6,237.9,311.7,238.7,328.1,237z" />
        <g>
            <path class="st10" d="M261.8,280.1c2.7,0.4,5.3,0.6,7.9,0.5c1.3-0.1,2.6-0.2,3.9-0.5c1.3-0.2,2.5-0.5,3.8-1
			c1.2-0.4,2.4-0.9,3.6-1.4c1.2-0.5,2.3-1.2,3.4-1.9c2.2-1.4,4.2-3.1,6.1-5.1c-1.2,2.4-3.1,4.6-5.2,6.3c-2.1,1.8-4.6,3.1-7.3,4
			C272.7,282.8,266.7,282.6,261.8,280.1z" />
        </g>
        <g class="st0">
            <linearGradient id="SVGID_4_" gradientUnits="userSpaceOnUse" x1="152.1938" y1="466.3941" x2="233.8099" y2="466.3941">
                <stop offset="0" style="stop-color:#E51540" />
                <stop offset="1" style="stop-color:#734192" />
            </linearGradient>
            <path class="st11" d="M177.8,390.4c0,0-6.4,64.1-9.6,83.9c-2.9,17.6-19.1,52.3-15.5,60.2c6,13,41.8,15.1,59.7-29.8
			c16.5-41.6,18.7-58.1,21.4-93.7C234.4,402.8,185.8,388.3,177.8,390.4z" />
        </g>

        <ellipse transform="matrix(0.3445 -0.9388 0.9388 0.3445 -241.2591 455.8214)" class="st12" cx="205.8" cy="400.7" rx="7.3" ry="29.8" />
        <path class="st13" d="M207.1,397.4c-8.5-3.3-16.2-4.7-17.1-3.1c-0.9,1.6,5.2,5.5,13.7,8.8c8.5,3.3,16.2,4.7,17.1,3.1
		C221.7,404.6,215.6,400.7,207.1,397.4z M218.3,405.1c-0.6,1-6.7-0.3-13.7-3c-6.9-2.7-12-5.7-11.4-6.7c0.6-1,6.7,0.3,13.7,3
		C213.8,401.1,218.9,404.1,218.3,405.1z" />
        <g>
            <path class="st7" d="M253.8,380.7c3.4,4.6,6.2,9.6,8.8,14.8c2.5,5.2,4.7,10.5,6.5,16c0.5,1.4,0.9,2.7,1.3,4.1
			c0.4,1.4,0.8,2.8,1.2,4.1c0.7,2.8,1.5,5.6,2,8.4l0.9,4.2c0.3,1.4,0.5,2.8,0.7,4.3c0.2,1.4,0.5,2.8,0.6,4.3l0.5,4.3
			c1.2,11.4,1.2,23,0.1,34.4l-0.4,4.3c-0.1,1.4-0.4,2.9-0.6,4.3l-0.6,4.3c-0.2,1.4-0.4,2.8-0.7,4.3l-1.6,8.5c-0.6,2.8-1.3,5.6-2,8.4
			c-0.6,2.8-1.5,5.6-2.3,8.3l-1.2,4.1l-0.6,2.1c-0.2,0.7-0.5,1.4-0.7,2l-2.9,8.1l-0.7,2l-0.8,2l-1.6,4c-4.2,10.7-9.4,21-14.7,31.2
			c-1.3,2.5-2.8,5-4.2,7.5c-1.4,2.5-2.8,5-4.3,7.5c-3.1,4.9-6.1,9.8-9.2,14.6c-3.3,4.7-6.5,9.5-9.8,14.2L207,634.9l10.2-13.9
			c3.3-4.7,6.4-9.5,9.7-14.3c3.1-4.8,6.1-9.7,9.1-14.6c1.4-2.5,2.8-5,4.3-7.5c1.4-2.5,2.9-5,4.2-7.5c5.3-10.2,10.4-20.5,14.5-31.2
			l1.6-4l0.8-2l0.7-2l2.8-8.1c0.2-0.7,0.5-1.4,0.7-2l0.6-2.1l1.2-4.1l1.2-4.1c0.4-1.4,0.7-2.8,1.1-4.2c0.7-2.8,1.4-5.6,2-8.4
			l1.6-8.4c0.3-1.4,0.5-2.8,0.7-4.2l0.6-4.3c0.2-1.4,0.4-2.8,0.6-4.3l0.4-4.3c1.1-11.4,1.1-22.9,0-34.3l-0.4-4.3
			c-0.2-1.4-0.4-2.8-0.6-4.3c-0.2-1.4-0.4-2.8-0.7-4.2l-0.8-4.2c-0.5-2.8-1.3-5.6-1.9-8.4c-0.4-1.4-0.8-2.8-1.2-4.1
			c-0.4-1.4-0.8-2.8-1.3-4.1c-1.7-5.5-3.9-10.8-6.3-16C259.9,390.4,257.2,385.3,253.8,380.7z" />
        </g>
        <g>
            <path class="st7" d="M378.7,340.9c2.2,5.6,3.9,11.3,5.4,17.1c1.5,5.8,2.8,11.7,3.8,17.5c2.1,11.8,3.4,23.7,4.1,35.7
			c1.4,23.9,0.3,48-2.7,71.7c-1.5,11.9-3.6,23.7-6,35.4c-1.3,5.8-2.5,11.7-4,17.5l-2.2,8.7l-2.4,8.7c-3.2,11.5-6.9,22.9-10.8,34.2
			c-2,5.6-4.2,11.2-6.3,16.8l-6.7,16.6l6.6-16.7c2-5.6,4.1-11.2,6.1-16.9c3.9-11.3,7.5-22.7,10.7-34.3l2.4-8.7l2.1-8.7
			c1.5-5.8,2.7-11.7,4-17.5c2.3-11.7,4.4-23.5,5.9-35.4c3.1-23.7,4.3-47.7,3-71.6c-0.7-11.9-1.9-23.9-4-35.6
			c-1-5.9-2.2-11.8-3.7-17.6C382.5,352.2,380.9,346.4,378.7,340.9z" />
        </g>
        <g>
            <linearGradient id="SVGID_5_" gradientUnits="userSpaceOnUse" x1="151.9431" y1="467.9227" x2="235.086" y2="467.9227">
                <stop offset="0" style="stop-color:#E51540" />
                <stop offset="1" style="stop-color:#734192" />
            </linearGradient>
            <path class="st14" d="M177.5,401.5c0,0-6.4,64.1-9.6,83.9c-2.9,17.6-19.1,52.3-15.5,60.2c6,13,41.8,15.1,59.7-29.8
			c16.5-41.6,27-62.5,21.4-93.7C223.2,364.4,178.4,380.2,177.5,401.5z" />
        </g>
        <path class="st15" d="M212.7,209.9c0,0-44.5-79.1-70.8-88.8" />
        <path class="st15" d="M293.8,182.1c0,0-7.8-90.4,8.4-113.3" />
        <ellipse class="st16" cx="212.8" cy="210" rx="2.5" ry="2.5" />
        <ellipse class="st16" cx="293.8" cy="182" rx="2.5" ry="2.5" />
        <ellipse class="st16" cx="142" cy="121.1" rx="2.5" ry="2.5" />
        <ellipse class="st16" cx="302.3" cy="68.7" rx="2.5" ry="2.5" />
    </g>
    <g id="Calque_4" class="st0">

        <image style="display:inline;overflow:visible;" width="576" height="1280" xlink:href="../../../Downloads/photo_2021-09-13 16.40.01.jpeg" transform="matrix(0.662 0 0 0.721 579.3057 190.4971)"></image>
    </g>
    <g id="Logo">
        <g>
            <path class="st2" d="M323.2,445.4c2.9-16.5,37.6-29,51.5-5.6c3.9-8.7-3.3-33.1-29-29.8C312.4,417.4,323.2,445.4,323.2,445.4z" />
            <path class="st2" d="M329.3,463.8c-16-6.8-20.4-47,6.7-56.6c-7.9-6.1-34.4-3.9-37.1,24.4C298.4,469,329.3,463.8,329.3,463.8z" />
            <path class="st2" d="M343.1,464.6c-11.1,12.5-47.4,4.8-47.1-22.4c-7.9,5.4-14.5,30,9.2,40.6C337.7,494.1,343.1,464.6,343.1,464.6z
			" />
            <path class="st2" d="M347.3,447.9c10,13.1-6.2,49.7-33.4,45.9c3.6,8.8,26.7,18.9,42.9-4.3C375.7,457.3,347.3,447.9,347.3,447.9z" />
            <path class="st2" d="M334.4,439.5c16-3.9,43.1,25.5,28.8,48.9c9.5,0.3,27.9-17,13.1-41.1C354.3,417.2,334.4,439.5,334.4,439.5z" />
        </g>
    </g>
</svg>